<?xml version="1.0" standalone="no"?>
<!DOCTYPE svg PUBLIC "-//W3C//DTD SVG 20010904//EN"
 "http://www.w3.org/TR/2001/REC-SVG-20010904/DTD/svg10.dtd">
<svg version="1.0"
    xmlns="http://www.w3.org/2000/svg" width="512.000000pt" height="512.000000pt" viewBox="0 0 512.000000 512.000000" preserveAspectRatio="xMidYMid meet">
    <g transform="translate(0.000000,512.000000) scale(0.100000,-0.100000)" fill="#000000" stroke="none">
        <path d="M2457 5020 c-14 -11 -31 -36 -37 -56 -20 -60 -6 -92 73 -176 107
-114 119 -127 174 -198 189 -246 335 -524 454 -870 62 -180 128 -447 144 -585
4 -27 8 -57 10 -65 2 -8 7 -40 10 -70 3 -30 8 -71 11 -90 3 -19 7 -152 8 -295
4 -232 -1 -349 -19 -495 -6 -52 -18 -143 -20 -150 -1 -3 -5 -30 -10 -60 -5
-30 -9 -57 -10 -60 -9 -39 -16 -71 -20 -99 -3 -19 -8 -37 -10 -41 -2 -3 -6
-17 -8 -31 -8 -40 -57 -209 -84 -289 -142 -417 -340 -760 -586 -1017 -50 -52
-99 -107 -108 -123 -30 -48 -3 -136 48 -159 20 -9 33 -7 66 7 36 17 167 112
262 192 55 45 260 254 300 305 22 27 46 56 53 63 32 35 156 218 211 315 193
335 323 716 376 1107 3 25 8 56 10 70 24 162 25 683 1 805 -2 11 -7 47 -10 80
-4 33 -14 92 -21 130 -8 39 -16 81 -19 95 -14 82 -101 380 -126 435 -5 11 -32
74 -60 139 -173 409 -471 798 -823 1076 -156 123 -198 143 -240 110z"/>
        <path d="M1573 3352 c-99 -35 -163 -94 -204 -188 -26 -58 -31 -178 -11 -248
50 -171 221 -261 420 -220 164 34 260 154 260 329 0 145 -72 263 -193 316 -70
31 -201 36 -272 11z"/>
        <path d="M1698 1635 c-2 -1 -28 -5 -59 -8 -75 -6 -142 -39 -199 -96 -74 -75
-101 -150 -94 -267 8 -146 105 -268 242 -304 63 -16 165 -14 225 6 137 44 221
155 230 304 12 183 -103 325 -290 358 -29 5 -54 8 -55 7z"/>
    </g>
</svg>
